<svg version="1.2" xmlns="http://www.w3.org/2000/svg" viewBox="0 0 20 20" width="20" height="20">
	<g>
		<path fill="none" stroke="#ffffff" stroke-linecap="round" stroke-linejoin="round" stroke-width="1.5" d="m10 19c5 0 9-4 9-9 0-5-4-9-9-9-5 0-9 4-9 9 0 5 4 9 9 9z"/>
		<path fill="none" stroke="#ffffff" stroke-linecap="round" stroke-linejoin="round" stroke-width="1.5" d="m12.5 7c-0.5-0.5-1.1-0.8-1.8-1-0.7-0.1-1.3 0-2 0.4-0.6 0.3-1.1 0.8-1.5 1.4-0.3 0.7-0.5 1.4-0.5 2.2 0 0.8 0.2 1.5 0.5 2.2 0.4 0.6 0.9 1.1 1.5 1.4 0.7 0.4 1.3 0.5 2 0.4 0.7-0.2 1.3-0.5 1.8-1"/>
	</g>
</svg>