<svg xmlns="http://www.w3.org/2000/svg" xmlns:xlink="http://www.w3.org/1999/xlink" version="1.1" width="512" height="512" x="0" y="0" viewBox="0 0 512 512" style="enable-background:new 0 0 512 512" xml:space="preserve" class=""><g><path d="M175.698 313.608v-168.48h71.767v205.736M291.465 350.864V195.128h71.768v155.736M407.233 350.864V245.128H479v105.736" style="stroke-width:22;stroke-linejoin:round;stroke-miterlimit:10;" fill="none" stroke="#002a4d" stroke-width="22" stroke-linejoin="round" stroke-miterlimit="10" data-original="#000000" opacity="1" class=""/><path d="M197.016 350.864H501v44H197.016" style="stroke-width:22;stroke-linejoin:round;stroke-miterlimit:10;" fill="none" stroke="#002a4d" stroke-width="22" stroke-linejoin="round" stroke-miterlimit="10" data-original="#000000" opacity="1" class=""/><path d="M479 201.128v-71.767l-16.438 16.438-49.671-49.671h-68.644l-50-50H175.698v55h95.767l50 50h68.644l33.562 33.562-16.438 16.438z" style="stroke-width:22;stroke-linejoin:round;stroke-miterlimit:10;" fill="none" stroke="#00ac8d" stroke-width="22" stroke-linejoin="round" stroke-miterlimit="10" data-original="#33cccc" opacity="1"/><circle cx="104.008" cy="372.864" r="93.008" style="stroke-width:22;stroke-linejoin:round;stroke-miterlimit:10;" fill="none" stroke="#00ac8d" stroke-width="22" stroke-linejoin="round" stroke-miterlimit="10" data-original="#33cccc" opacity="1"/><path d="M104.008 320.379v14.661M104.008 425.349v-14.662M84.008 410.687h20c10.445 0 18.912-8.467 18.912-18.912v0c0-10.445-8.467-18.912-18.912-18.912h0c-10.445 0-18.912-8.467-18.912-18.912v0c0-10.445 8.467-18.912 18.912-18.912h20" style="stroke-width:22;stroke-linecap:round;stroke-linejoin:round;stroke-miterlimit:10;" fill="none" stroke="#00ac8d" stroke-width="22" stroke-linecap="round" stroke-linejoin="round" stroke-miterlimit="10" data-original="#33cccc" opacity="1"/></g></svg>