<svg xmlns="http://www.w3.org/2000/svg" version="1.1" xmlns:xlink="http://www.w3.org/1999/xlink" width="512" height="512" x="0" y="0" viewBox="0 0 512 512" style="enable-background:new 0 0 512 512" xml:space="preserve" class=""><g><path d="M361 151v45c-13.807 0-25 11.193-25 25s11.193 25 25 25v45h140V151M361 11H221v140h45c0-13.807 11.193-25 25-25s25 11.192 25 25h45" style="fill-rule:evenodd;clip-rule:evenodd;stroke-width:22;stroke-linecap:round;stroke-linejoin:round;stroke-miterlimit:2.6131;" fill-rule="evenodd" clip-rule="evenodd" fill="none" stroke="#002a4d" stroke-width="22" stroke-linecap="round" stroke-linejoin="round" stroke-miterlimit="2.6131" data-original="#000000" opacity="1" class=""></path><path d="M187.992 361H291v-45c-13.807 0-25-11.193-25-25s11.192-25 25-25v-45h-45c0-13.807-11.193-25-25-25s-25 11.193-25 25h-45v105.227M501 11H361v45c13.807 0 25 11.193 25 25s-11.192 25-25 25v45h45c0 13.807 11.193 25 25 25s25-11.193 25-25h45V11z" style="fill-rule:evenodd;clip-rule:evenodd;stroke-width:22;stroke-linecap:round;stroke-linejoin:round;stroke-miterlimit:2.6131;" fill-rule="evenodd" clip-rule="evenodd" fill="none" stroke="#00ac8d" stroke-width="22" stroke-linecap="round" stroke-linejoin="round" stroke-miterlimit="2.6131" data-original="#33cccc" opacity="1" class=""></path><path d="M123.957 501v-51.462a112.85 112.85 0 0 0 26.591-19.73c20.359-20.359 32.952-48.484 32.952-79.548 0-12.426-10.074-22.5-22.5-22.5s-22.5 10.074-22.5 22.5c0 18.642-7.555 35.518-19.769 47.731C106.517 410.205 89.641 417.76 71 417.76c-33.137 0-60 26.863-60 60V501h112.957z" style="fill-rule:evenodd;clip-rule:evenodd;stroke-width:22;stroke-linecap:round;stroke-linejoin:round;stroke-miterlimit:22.9256;" fill-rule="evenodd" clip-rule="evenodd" fill="none" stroke="#002a4d" stroke-width="22" stroke-linecap="round" stroke-linejoin="round" stroke-miterlimit="22.9256" data-original="#000000" opacity="1" class=""></path><path d="M71.001 352.761c-17.604 0-31.875 14.271-31.875 31.875s14.271 31.875 31.875 31.875 31.874-14.271 31.874-31.875c0-17.605-14.271-31.875-31.874-31.875z" style="fill-rule:evenodd;clip-rule:evenodd;stroke-width:22;stroke-linecap:round;stroke-linejoin:round;stroke-miterlimit:22.9256;" fill-rule="evenodd" clip-rule="evenodd" fill="none" stroke="#002a4d" stroke-width="22" stroke-linecap="round" stroke-linejoin="round" stroke-miterlimit="22.9256" data-original="#000000" opacity="1" class=""></path></g></svg>