<svg xmlns="http://www.w3.org/2000/svg" version="1.1" xmlns:xlink="http://www.w3.org/1999/xlink" width="512" height="512" x="0" y="0" viewBox="0 0 512 512" style="enable-background:new 0 0 512 512" xml:space="preserve" class=""><g><circle cx="256.009" cy="167.613" r="36.835" style="stroke-width:22;stroke-linecap:round;stroke-linejoin:round;stroke-miterlimit:10;" fill="none" stroke="#00ac8d" stroke-width="22" stroke-linecap="round" stroke-linejoin="round" stroke-miterlimit="10" data-original="#33cccc" opacity="1"></circle><path d="M205.294 250.001c2.72-25.605 24.388-45.553 50.715-45.553h0c25.676 0 46.921 18.974 50.479 43.665" style="stroke-width:22;stroke-linecap:round;stroke-linejoin:round;stroke-miterlimit:10;" fill="none" stroke="#00ac8d" stroke-width="22" stroke-linecap="round" stroke-linejoin="round" stroke-miterlimit="10" data-original="#33cccc" opacity="1"></path><path d="M417.7 206.488v-67.576h-25.836a139.144 139.144 0 0 0-15.907-38.385l18.274-18.274-47.784-47.784-18.274 18.274a139.157 139.157 0 0 0-38.385-15.907V11h-67.576v25.836a139.144 139.144 0 0 0-38.385 15.907l-18.274-18.274-47.784 47.784 18.274 18.274a139.157 139.157 0 0 0-15.907 38.385H94.3v67.576h25.836a139.144 139.144 0 0 0 15.907 38.385l-18.274 18.274 47.784 47.784 18.274-18.274a139.157 139.157 0 0 0 38.385 15.907V334.4h67.576v-25.836a139.144 139.144 0 0 0 38.385-15.907l18.274 18.274 47.784-47.784-18.274-18.274a139.157 139.157 0 0 0 15.907-38.385H417.7zM431.187 499v-29.322c0-6.55 2.602-12.831 7.233-17.462l49.772-49.772a42.18 42.18 0 0 0 12.354-29.826V227.972c0-12.331-9.997-22.328-22.328-22.328h0c-12.331 0-22.328 9.997-22.328 22.328v95.76M333.231 501h108.956" style="stroke-width:22;stroke-linecap:round;stroke-linejoin:round;stroke-miterlimit:10;" fill="none" stroke="#002a4d" stroke-width="22" stroke-linecap="round" stroke-linejoin="round" stroke-miterlimit="10" data-original="#000000" class="" opacity="1"></path><path d="m396.928 406.514 55.113-55.113c8.72-8.72 8.72-22.857 0-31.577h0c-8.72-8.72-22.857-8.72-31.577 0l-59.133 59.133a58.387 58.387 0 0 0-17.101 41.285V499M80.813 499v-29.322c0-6.55-2.602-12.831-7.233-17.462l-49.772-49.772a42.18 42.18 0 0 1-12.354-29.826V227.972c0-12.331 9.997-22.328 22.328-22.328h0c12.331 0 22.328 9.997 22.328 22.328v96.639M178.597 501H69.813" style="stroke-width:22;stroke-linecap:round;stroke-linejoin:round;stroke-miterlimit:10;" fill="none" stroke="#002a4d" stroke-width="22" stroke-linecap="round" stroke-linejoin="round" stroke-miterlimit="10" data-original="#000000" class="" opacity="1"></path><path d="m115.072 406.514-55.113-55.113c-8.72-8.72-8.72-22.857 0-31.577h0c8.72-8.72 22.857-8.72 31.577 0l59.133 59.133a58.387 58.387 0 0 1 17.101 41.285v77.879" style="stroke-width:22;stroke-linecap:round;stroke-linejoin:round;stroke-miterlimit:10;" fill="none" stroke="#002a4d" stroke-width="22" stroke-linecap="round" stroke-linejoin="round" stroke-miterlimit="10" data-original="#000000" class="" opacity="1"></path><circle cx="256" cy="172.7" r="93.826" style="stroke-width:22;stroke-linecap:round;stroke-linejoin:round;stroke-miterlimit:10;" fill="none" stroke="#002a4d" stroke-width="22" stroke-linecap="round" stroke-linejoin="round" stroke-miterlimit="10" data-original="#000000" class="" opacity="1"></circle></g></svg>